<svg xmlns="http://www.w3.org/2000/svg" viewBox="-10 -10 200 200" id="Being-Creative-2--Streamline-Milano.svg" style="background-color: #ffffff"><desc>Being Creative 2 Streamline Illustration: https://streamlinehq.com</desc><g fill="#000000"><path d="M78.003 72.09a2.853 2.853 0 0 1 2.3400000000000003 -0.5850000000000001 0.28800000000000003 0.28800000000000003 0 0 0 0.117 -0.558 3.078 3.078 0 0 0 -2.871 0.9c-0.25200000000000006 0.423 -0.07200000000000001 0.621 0.41400000000000003 0.24300000000000002zm10.44 2.52c-0.28800000000000003 -0.432 -0.7110000000000001 0.6030000000000001 -0.396 1.125 0.441 0.765 0.8280000000000001 -0.459 0.396 -1.125zm30.861 -46.035c3.906 -1.557 7.785 -3.213 11.700000000000001 -4.680000000000001 -0.18000000000000002 0.279 -2.583 4.3020000000000005 -1.1700000000000002 3.9330000000000003 1.989 -0.522 12.069 -3.222 13.977 -3.978a0.333 0.333 0 1 0 -0.18000000000000002 -0.639c-4.239 0.9 -9 2.52 -13.275 3.681a20.115000000000002 20.115000000000002 0 0 1 1.9080000000000001 -3.6 0.36000000000000004 0.36000000000000004 0 0 0 -0.41400000000000003 -0.513c-4.248 1.8 -8.568 3.4019999999999997 -12.770999999999999 5.301 -0.225 0.162 -0.036000000000000004 0.5940000000000001 0.225 0.49500000000000005zM87.642 70.75800000000001c1.197 -0.045000000000000005 1.296 0.25200000000000006 2.2680000000000002 0.5850000000000001 0.369 0.135 0.054 -0.6930000000000001 -0.9 -1.026 -1.818 -0.63 -1.854 0.459 -1.368 0.441zm70.389 -24.174c0.25200000000000006 0.216 0.63 -0.117 0.396 -0.369 -2.124 -2.1870000000000003 -6.372 -3.861 -6.048 -2.637 0.162 0.639 2.421 0.225 5.652 3.006zm15.120000000000001 16.902c-0.387 -1.35 -2.646 -7.308 -3.339 -5.985 -0.117 0.216 2.4120000000000004 4.986 2.853 6.12a0.25200000000000006 0.25200000000000006 0 0 0 0.48600000000000004 -0.135zM79.398 75.015c-0.099 -0.48600000000000004 -0.639 -0.6120000000000001 -0.7200000000000001 0 -0.15300000000000002 1.1700000000000002 0.891 0.927 0.7200000000000001 0zm93.753 -11.538v0.018000000000000002zm-52.983 -3.609a0.279 0.279 0 0 0 0.24300000000000002 -0.48600000000000004l-7.2 -4.689c-0.28800000000000003 -0.162 -0.7110000000000001 0.216 -0.423 0.468a37.332 37.332 0 0 0 7.38 4.707000000000001zm6.138000000000001 -9.009a0.387 0.387 0 0 0 0.18000000000000002 0.198 130.5 130.5 0 0 1 13.077 6.3c0.423 0.24300000000000002 0.8280000000000001 -0.396 0.396 -0.621a127.17000000000002 127.17000000000002 0 0 0 -12.339 -6.039l3.024 -1.107c0.29700000000000004 -0.108 0.423 -0.6030000000000001 0 -0.7020000000000001a106.56 106.56 0 0 1 -11.088000000000001 -3.42c-0.333 -0.12600000000000003 -0.49500000000000005 0.396 -0.171 0.522a103.851 103.851 0 0 0 9.954 3.285c-2.133 0.9540000000000001 -3.339 0.909 -3.0330000000000004 1.584zM116.75699999999999 37.89c0.324 0 0.35100000000000003 -0.531 0 -0.522 0 0 -4.959 0.099 -3.7800000000000002 0.9810000000000001a17.577 17.577 0 0 0 3.7800000000000002 -0.459zm-10.431000000000001 51.453a11.124 11.124 0 0 1 4.635000000000001 1.8 0.378 0.378 0 0 0 0.441 -0.6030000000000001 9.531 9.531 0 0 0 -5.022 -1.7369999999999999 0.261 0.261 0 0 0 -0.054 0.54zm8.406 3.564a0.25200000000000006 0.25200000000000006 0 0 0 0.09000000000000001 0.324 32.49 32.49 0 0 0 3.06 1.9080000000000001c0.459 0.117 0.621 -0.423 -0.108 -0.846 -2.214 -1.125 -2.826 -1.899 -3.042 -1.3860000000000001zM126.49500000000002 37.800000000000004c-4.689 -1.035 -5.211 -0.24300000000000002 -4.599 0.12600000000000003a41.4 41.4 0 0 0 4.5 0.396 0.261 0.261 0 0 0 0.099 -0.522zm10.431000000000001 1.4849999999999999a0.24300000000000002 0.24300000000000002 0 0 0 -0.162 -0.28800000000000003c-6.021000000000001 -1.746 -4.6979999999999995 -0.27 -4.077 -0.198 3.753 0.405 4.113 0.9810000000000001 4.239 0.48600000000000004zm-51.741 41.13h-1.71c0 -1.647 0.20700000000000002 -3.285 0.20700000000000002 -4.932 0 -0.14400000000000002 -0.20700000000000002 -0.14400000000000002 -0.24300000000000002 0a16.848 16.848 0 0 0 -0.558 4.932c0 0.9 1.4400000000000002 0.6120000000000001 2.331 0.6030000000000001 0.369 -0.018000000000000002 0.35100000000000003 -0.6030000000000001 -0.027 -0.6030000000000001zm29.763 -62.028000000000006a41.643 41.643 0 0 0 5.535 -4.671c0.36000000000000004 -0.36000000000000004 -0.24300000000000002 -0.9 -0.5940000000000001 -0.513a70.551 70.551 0 0 1 -5.256 4.7250000000000005 0.279 0.279 0 0 0 0.315 0.459zm37.296 89.23500000000001c-0.7200000000000001 -0.099 -2.079 0.459 -5.04 0.315 -0.28800000000000003 0 -0.369 0.468 -0.06300000000000001 0.522a14.121 14.121 0 0 0 4.842 -0.162c0.49500000000000005 -0.108 0.639 -0.63 0.261 -0.675zM39.6 154.31400000000002c-0.756 -0.25200000000000006 -1.989 0.20700000000000002 -6.534 -0.8370000000000001 -0.28800000000000003 -0.07200000000000001 -0.48600000000000004 0.396 -0.189 0.513 1.251 0.47700000000000004 7.407000000000001 1.8 6.966 0.531a0.342 0.342 0 0 0 -0.24300000000000002 -0.20700000000000002zm-23.814 -11.007000000000001c-1.26 -0.49500000000000005 -2.9160000000000004 -2.7 -3.6 -3.8070000000000004 -0.171 -0.279 -0.558 0 -0.432 0.261a8.631 8.631 0 0 0 3.654 4.158 0.36000000000000004 0.36000000000000004 0 0 0 0.5040000000000001 0 0.369 0.369 0 0 0 0 -0.513 0.378 0.378 0 0 0 -0.12600000000000003 -0.099z" stroke-width="1"></path><path d="M139.554 107.001A180.9 180.9 0 0 0 137.20499999999998 81c-0.8190000000000001 -4.968 -1.242 -4.6530000000000005 0.315 -9.126000000000001 0.7110000000000001 -2.07 0.522 -6.849 -2.493 -6.246 0.09000000000000001 -0.63 -1.431 -1.0080000000000002 -2.52 -0.396 -0.7200000000000001 -7.839000000000001 -2.943 -7.101 -2.763 -5.175s0.7200000000000001 2.79 0.198 7.137c-0.9990000000000001 0.225 -2.61 0.9 -2.952 1.8900000000000001s0.459 1.9260000000000002 0.9630000000000001 2.7c1.2240000000000002 1.9260000000000002 0.7290000000000001 2.79 0.07200000000000001 4.572a142.947 142.947 0 0 0 -5.517 21.654l-1.8 -1.089a0.261 0.261 0 0 0 -0.28800000000000003 0.423c0.657 0.459 1.305 0.9 1.9620000000000002 1.359 -0.06300000000000001 0.405 -0.135 0.801 -0.198 1.197 -6.003 -2.8800000000000003 -19.143 -6.3 -25.587 -6.768 -0.513 4.896000000000001 -3.87 6.039 -8.235000000000001 6.525A39.105000000000004 39.105000000000004 0 0 1 80.10000000000001 99.9c-4.761 -0.47700000000000004 -8.001000000000001 -2.178 -8.226 -7.2 -13.248000000000001 2.637 -38.322 15.426 -42.300000000000004 29.754 4.563000000000001 -3.366 21.195 -2.079 27.144000000000002 -1.512a48.789 48.789 0 0 1 4.023 -10.746c0.15300000000000002 -0.28800000000000003 0.621 -0.099 0.47700000000000004 0.20700000000000002a54.72 54.72 0 0 0 -3.6990000000000003 10.610999999999999 108.486 108.486 0 0 1 18.648 3.51 16.2 16.2 0 0 0 -1.143 2.7c-0.279 0.9900000000000001 0.27 1.341 1.1880000000000002 1.476 -0.7110000000000001 1.305 -0.8280000000000001 4.842 -0.171 5.895 -10.863000000000001 2.331 -21.816 6.4350000000000005 -33.093 4.635000000000001 -2.592 -0.41400000000000003 -6.003 -1.1340000000000001 -7.956 -3.024 -3.8070000000000004 -3.69 -1.746 -10.431000000000001 -0.369 -14.76 -1.935 0.24300000000000002 -4.356 0.8280000000000001 -5.5440000000000005 2.484 -0.441 0.6030000000000001 0.18000000000000002 3.042 3.42 3.672 -0.5670000000000001 3.483 -0.18000000000000002 7.434 2.9250000000000003 9.666 4.5 3.249 14.013 3.186 19.188000000000002 2.556 -0.9 4.446000000000001 -1.287 23.319 -0.657 27.351000000000003 0.054 0.189 0.396 0.225 0.396 0 0.135 -2.034 -0.081 -4.742999999999999 -0.081 -6.939 3.744 1.125 7.5600000000000005 2.0160000000000005 11.385 2.79v0.441a0.171 0.171 0 0 0 0.342 0c0.06300000000000001 -0.423 0 -4.347 0.396 -5.4l1.1700000000000002 0.25200000000000006c-0.315 1.503 -0.5040000000000001 5.535 -0.081 5.607a0.135 0.135 0 0 0 0.162 -0.108c0.15300000000000002 -1.107 -0.801 0.162 12.402 1.431 0.081 0.792 0.747 1.089 1.512 1.197a60.75900000000001 60.75900000000001 0 0 0 8.586 0.396c0.9 0 2.394 0.189 2.7 -0.9810000000000001a99.738 99.738 0 0 0 12.996 -0.9540000000000001v0.5040000000000001a0.14400000000000002 0.14400000000000002 0 0 0 0.28800000000000003 0 25.983 25.983 0 0 0 0 -6.3h0.9c0.162 2.034 0.333 4.077 0.48600000000000004 6.111 0 0.189 0.27 0.24300000000000002 0.29700000000000004 0 0.135 -1.476 -0.675 0.225 10.278 -2.943q0 2.763 0.09000000000000001 5.553c0 0.27 0.468 0.27 0.468 0 0.459 -6.777 -0.675 -18.27 -1.6560000000000001 -24.786 -1.9080000000000001 -12.798 -5.103 -23.634 -8.928 -35.82 -0.081 -0.279 0.333 -0.441 0.432 -0.162 2.088 6.192 4.41 12.294 5.967 18.666a36.504000000000005 36.504000000000005 0 0 0 11.799 4.167 9.558 9.558 0 0 1 -4.680000000000001 -5.967c-1.683 -6.354 0.18000000000000002 -18.657 1.2240000000000002 -24.831 0.639 0.423 1.8 1.3860000000000001 2.16 1.197 0.9 -0.41400000000000003 -1.368 -1.494 -2.043 -1.917a165.6 165.6 0 0 1 5.4 -21.78c0.648 -2.115 1.251 -2.8440000000000003 0 -4.95 -0.747 -1.2240000000000002 -1.62 -2.1510000000000002 -0.198 -3.1050000000000004s5.22 -1.647 1.8 0.45c-0.648 0.405 1.251 0.549 1.989 1.9440000000000002 0.216 0.396 0.8370000000000001 0.47700000000000004 0.333 -0.35100000000000003a2.8890000000000002 2.8890000000000002 0 0 0 -1.647 -1.4400000000000002 4.05 4.05 0 0 0 0.7020000000000001 -0.54 1.071 1.071 0 0 0 1.017 -0.09000000000000001 0.9 0.9 0 0 0 0.18000000000000002 0.432 0.792 0.792 0 0 0 1.116 0.117c0.774 -0.5850000000000001 0.432 -0.756 1.665 -1.197a0.189 0.189 0 0 0 0.135 -0.18000000000000002 0.216 0.216 0 0 0 -0.20700000000000002 -0.198c-1.296 0.108 -1.872 1.8 -2.3400000000000003 1.233s1.1340000000000001 -2.196 1.665 -2.439c2.259 -1.035 3.4019999999999997 2.286 2.457 5.472s-1.503 2.8080000000000003 -0.792 7.155a184.977 184.977 0 0 1 2.7 27.900000000000002l-1.566 -0.558c-0.279 -0.108 -0.47700000000000004 0.35100000000000003 -0.20700000000000002 0.48600000000000004 0.5850000000000001 0.28800000000000003 1.179 0.54 1.8 0.774 0 3.5010000000000003 0.12600000000000003 9.216000000000001 -0.432 12.501000000000001 -1.314 7.668 -10.197000000000001 6.39 -15.993 4.752000000000001 0.783 1.854 3.375 5.328 5.688000000000001 5.031 1.6560000000000001 -0.20700000000000002 3.0330000000000004 -1.746 3.798 -3.177 6.606 -1.143 7.263000000000001 -4.977 7.470000000000001 -10.8 0.09000000000000001 -2.7 0.099 -5.4 0.06300000000000001 -8.1a14.822999999999999 14.822999999999999 0 0 0 3.177 0.9 0.29700000000000004 0.29700000000000004 0 0 0 0.162 -0.549c-0.765 -0.405 -2.322 -0.738 -3.303 -1.071zm-41.922 29.088 0.396 1.494 -1.278 -0.855c0.48600000000000004 -0.513 0.261 -0.369 0.9 -0.639zm-0.12600000000000003 -0.49500000000000005c-0.423 0.099 -1.026 0.45 -1.089 0.9a11.754000000000001 11.754000000000001 0 0 0 -2.106 -1.107 3.366 3.366 0 0 1 2.7 -1.746c0.189 0.675 0.324 1.359 0.49500000000000005 1.953zm-8.55 -11.952a12.906 12.906 0 0 0 -4.077 0.081l-4.977 -6.363c1.044 -1.7369999999999999 2.115 -1.7009999999999998 2.475 -1.7369999999999999zM82.017 115.2a3.339 3.339 0 0 0 -2.421 1.8l-0.801 -1.035a2.259 2.259 0 0 1 2.61 -1.4849999999999999zM80.10000000000001 112.88700000000001l0.81 1.0080000000000002a2.574 2.574 0 0 0 -2.439 1.683c-0.25200000000000006 -0.35100000000000003 -0.522 -0.6930000000000001 -0.792 -1.035 0.513 -1.4849999999999999 2.421 -1.6560000000000001 2.421 -1.6560000000000001zm-2.907 -1.971c1.161 -0.5760000000000001 1.6560000000000001 0.432 2.511 1.4580000000000002a3.375 3.375 0 0 0 -2.367 1.8c-0.8370000000000001 -1.062 -1.7369999999999999 -2.466 -0.12600000000000003 -3.258zm-1.4669999999999999 15.687a24.678 24.678 0 0 1 1.251 -2.601c0.216 -0.45 2.9250000000000003 0.15300000000000002 3.357 0.25200000000000006 0.7290000000000001 0.198 0.522 0.5670000000000001 0.432 1.1880000000000002 -0.081 0.47700000000000004 -0.522 2.8440000000000003 -0.8370000000000001 2.862a24.615000000000002 24.615000000000002 0 0 1 -3.726 -0.342c-0.9810000000000001 -0.216 -0.7200000000000001 -0.621 -0.459 -1.359zm0.9 2.106c0.8190000000000001 0.07200000000000001 1.647 0.045000000000000005 2.466 0.117 -0.459 1.233 -0.783 3.8160000000000003 -0.099 5.076 -0.774 0.135 -1.548 0.28800000000000003 -2.322 0.441 -1.0080000000000002 -1.755 -0.468 -4.5360000000000005 -0.07200000000000001 -5.643zm-2.4480000000000004 18.747a17.541 17.541 0 0 0 4.6979999999999995 -2.7c0.36000000000000004 -0.30600000000000005 0.8280000000000001 0.35100000000000003 0.432 0.621 -5.508 3.7800000000000002 -5.697 2.286 -5.157000000000001 2.079zm-17.433 6.084c0.216 -0.054 4.851 -1.314 5.193 -1.089 1.395 0.9 -5.112 1.566 -5.148 1.566 -0.27 -0.018000000000000002 -0.24300000000000002 -0.387 -0.045000000000000005 -0.47700000000000004zm8.892000000000001 8.784c-3.789 -0.774 -7.569 -1.728 -11.349 -2.628v-3.222a114.453 114.453 0 0 0 11.556000000000001 2.2680000000000002c-0.14400000000000002 1.161 -0.14400000000000002 2.358 -0.20700000000000002 3.582zm-0.045000000000000005 -10.8c-0.29700000000000004 0.06300000000000001 -0.30600000000000005 -0.405 -0.117 -0.49500000000000005s5.184 -2.403 4.5 -1.08c-0.198 0.45 -3.789 1.368 -4.383 1.557zm14.4 13.068c-4.104 -0.423 -8.226 -0.9900000000000001 -12.267000000000001 -1.8l0.261 -3.6990000000000003c4.023 0.5760000000000001 8.1 1.017 12.114 1.278a27.765 27.765 0 0 0 -0.07200000000000001 4.203zm0.06300000000000001 -30.780000000000005h-0.423c-0.81 -0.9900000000000001 -0.41400000000000003 -3.8070000000000004 -0.234 -4.932 1.368 0.135 1.287 -0.25200000000000006 1.9980000000000002 -3.8880000000000003 1.368 -0.234 8.685 -2.421 11.313 1.0080000000000002 -2.439 -1.0080000000000002 -2.628 -0.162 -2.25 -0.162 1.647 -0.054 4.1850000000000005 1.251 3.6 3.285 -1.233 -1.53 -3.1410000000000005 -1.449 -4.8149999999999995 -0.48600000000000004 -0.28800000000000003 -0.09000000000000001 -0.459 0.07200000000000001 -0.28800000000000003 0.216 0.531 0.405 1.098 0.333 1.503 0.9990000000000001 0.801 1.377 -0.675 4.284 -3.114 2.169a13.842 13.842 0 0 1 1.746 -0.792c0.369 -0.18000000000000002 -0.15300000000000002 -0.8190000000000001 -2.2680000000000002 0.5040000000000001a10.656 10.656 0 0 1 -6.723 2.061zm10.746 1.6560000000000001c0.099 -0.099 0.261 -0.621 0.6930000000000001 -0.25200000000000006 0.5850000000000001 0.513 -2.169 2.502 -2.592 2.898 -0.261 0.216 -0.648 -0.117 -0.405 -0.35100000000000003zm-4.347 5.049c-0.20700000000000002 0.45 -3.159 2.439 -3.4739999999999998 2.646s-0.5760000000000001 -0.198 -0.324 -0.396a37.179 37.179 0 0 1 3.42 -2.7 0.342 0.342 0 0 1 0.41400000000000003 0.432zm5.867999999999999 25.2c0 0.378 -0.378 0.513 -0.774 0.549a70.78500000000001 70.78500000000001 0 0 1 -10.26 -0.405c-1.098 -0.24300000000000002 -0.774 -0.9 -0.8280000000000001 -1.089 -0.09000000000000001 -0.342 0 -5.076 0.261 -5.238s10.953 0.35100000000000003 11.493 0.5850000000000001a36.09 36.09 0 0 1 0.14400000000000002 5.58zm-1.278 -34.2a2.0160000000000005 2.0160000000000005 0 0 0 -1.296 -2.7c0.9630000000000001 -0.28800000000000003 2.439 -0.738 3.33 0l3.6 4.455a3.6 3.6 0 0 0 -2.7 1.8zm1.8 33.705000000000005c0 -1.494 0 -2.988 -0.06300000000000001 -4.5 4.3020000000000005 0 8.595 -0.24300000000000002 12.888 -0.5940000000000001l0.108 4.149a86.31 86.31 0 0 1 -12.897 0.918zm25.074 -7.2c0.06300000000000001 1.2060000000000002 0.108 2.421 0.14400000000000002 3.6h-0.045000000000000005a84.924 84.924 0 0 1 -10.134 2.2680000000000002 22.608 22.608 0 0 0 -0.24300000000000002 -3.978 47.7 47.7 0 0 0 10.314000000000002 -1.9080000000000001zm12.915 -90.9 -0.5850000000000001 0.054c1.08 -3.753 -0.783 -9.234 0.41400000000000003 -7.470000000000001 0.8370000000000001 1.242 1.0080000000000002 4.941000000000001 1.296 5.922000000000001a2.979 2.979 0 0 0 -1.089 1.449zm0.8190000000000001 1.143c0.405 -0.5040000000000001 0.198 -0.9900000000000001 -0.423 -1.116a3.906 3.906 0 0 1 1.9980000000000002 -1.629 1.215 1.215 0 0 1 1.314 0.279c-1.413 0.513 -1.872 2.331 -2.853 2.421zM23.634 84.69a12.141 12.141 0 0 0 -5.202 3.8789999999999996c-0.171 0.234 0.20700000000000002 0.513 0.396 0.30600000000000005a13.32 13.32 0 0 1 4.995 -3.5010000000000003c0.47700000000000004 -0.162 0.225 -0.855 -0.189 -0.684z" stroke-width="1"></path><path d="M132.984 104.4c-1.449 -0.7290000000000001 -2.619 -1.548 -3.7710000000000004 -2.142 -0.27 -0.14400000000000002 -0.459 0.27 -0.25200000000000006 0.45a17.469 17.469 0 0 0 3.123 1.989c1.854 0.9990000000000001 1.593 0.018000000000000002 0.9 -0.29700000000000004zM27.387 151.704a31.5 31.5 0 0 1 -6.093 -3.546 0.279 0.279 0 0 0 -0.35100000000000003 0.432c1.035 0.9990000000000001 4.689 3.546 6.183 3.672 0.28800000000000003 0.027 0.5850000000000001 -0.396 0.261 -0.558zm22.383000000000003 2.61c-2.9970000000000003 0.522 -5.274 -0.198 -5.193 0.513a0.27 0.27 0 0 0 0.20700000000000002 0.225 27 27 0 0 0 5.049 0c0.468 -0.045000000000000005 0.405 -0.8190000000000001 -0.06300000000000001 -0.738zM146.745 41.643c-5.796 -3.123 -4.995 -1.251 -4.599 -1.125a45.144 45.144 0 0 1 4.3740000000000006 1.584c0.28800000000000003 0.117 0.47700000000000004 -0.324 0.225 -0.459zm28.647 28.404c-0.261 -1.935 -1.053 -1.8 -0.9450000000000001 -1.377 0.549 2.286 0.432 4.752000000000001 0.423 7.5600000000000005a0.27 0.27 0 0 0 0.531 0 44.685 44.685 0 0 0 -0.009000000000000001 -6.183zm-4.6080000000000005 23.121000000000002a0.315 0.315 0 0 0 -0.198 0.09000000000000001 20.025000000000002 20.025000000000002 0 0 1 -3.834 5.238c-0.24300000000000002 0.225 0.117 0.549 0.36000000000000004 0.342 1.881 -1.512 5.058 -5.760000000000001 3.672 -5.67zm3.636 -10.737a0.30600000000000005 0.30600000000000005 0 0 0 -0.12600000000000003 0.081c-0.792 3.9149999999999996 -2.421 5.877000000000001 -1.6560000000000001 5.985 0.5850000000000001 0.09000000000000001 3.1410000000000005 -6.516 1.782 -6.066000000000001zm-12.159 -33.516000000000005c0.684 0.9810000000000001 2.295 2.754 3.186 3.9240000000000004 0 0 1.1340000000000001 0.63 -0.25200000000000006 -1.368 -3.375 -4.86 -2.9339999999999997 -2.565 -2.9339999999999997 -2.556zm0.081 53.874a47.592000000000006 47.592000000000006 0 0 1 -5.652 2.9160000000000004c-0.423 0.18000000000000002 -0.5850000000000001 1.476 4.671 -1.53a5.058 5.058 0 0 0 1.35 -0.9c0.189 -0.27 -0.09000000000000001 -0.5670000000000001 -0.369 -0.48600000000000004zM13.815 92.43a16.713 16.713 0 0 0 -4.023 6.021000000000001 0.25200000000000006 0.25200000000000006 0 0 0 0.135 0.324c0.6030000000000001 0.24300000000000002 0.49500000000000005 -1.746 3.8520000000000003 -5.3100000000000005 0.9810000000000001 -0.8190000000000001 0.621 -1.665 0.036000000000000004 -1.035zM43.2 19.251l5.706 3.4650000000000003c0.27 0.171 0.5670000000000001 -0.30600000000000005 0.29700000000000004 -0.48600000000000004 -0.8370000000000001 -0.54 -5.8500000000000005 -3.978 -6.4350000000000005 -4.068 -0.468 -0.054 -0.7290000000000001 0.378 0.432 1.089zm-0.9 60.516a18.18 18.18 0 0 1 6.453 -0.7110000000000001c0.549 0 0.9 -1.233 -3.357 -0.666 -3.9960000000000004 0.531 -3.636 1.521 -3.096 1.377zm4.833 -30.843000000000004a0.25200000000000006 0.25200000000000006 0 0 0 -0.27 -0.108 50.796 50.796 0 0 0 -6.912 3.258c-0.8280000000000001 0.441 -0.07200000000000001 1.278 0.342 0.792 0.621 -0.6030000000000001 5.6160000000000005 -3.006 6.768 -3.6a0.25200000000000006 0.25200000000000006 0 0 0 0.07200000000000001 -0.342zm7.38 30.051000000000002a24.003000000000004 24.003000000000004 0 0 1 4.545 0.279c0.342 0.06300000000000001 0.396 -0.54 0.09000000000000001 -0.657a14.751000000000001 14.751000000000001 0 0 0 -4.6979999999999995 -0.18000000000000002 0.279 0.279 0 0 0 -0.20700000000000002 0.342 0.279 0.279 0 0 0 0.27 0.216zm9.729000000000001 -0.099a0.279 0.279 0 0 0 0.099 0.558c3.294 -0.28800000000000003 3.8789999999999996 0.324 4.779 0.315 0.27 0 0.49500000000000005 -0.396 0.20700000000000002 -0.5670000000000001 -1.017 -0.6120000000000001 -3.978 -0.549 -5.085000000000001 -0.30600000000000005z" stroke-width="1"></path><path d="M70.281 58.122a29.853 29.853 0 0 0 1.044 5.634c-0.396 0.108 -1.0080000000000002 0.342 -0.9990000000000001 0.9A31.671 31.671 0 0 0 72.09 74.7c-1.8 1.8900000000000001 -1.044 5.517 1.1700000000000002 7.6049999999999995a82.368 82.368 0 0 0 -0.801 10.206c0.27 3.672 1.8 5.625 5.346 6.3a33.687 33.687 0 0 0 11.205 0c4.437 -0.6120000000000001 6.732 -2.025 6.912 -6.7410000000000005a45.783 45.783 0 0 0 -0.9540000000000001 -10.566c1.026 -0.468 2.853 -4.959 1.1700000000000002 -6.849 0.5670000000000001 -1.035 0.9 -6.516 0.9720000000000001 -8.1 0.06300000000000001 -2.9160000000000004 0.117 -2.637 -1.035 -2.9250000000000003 0.261 -1.584 0.531 -3.186 0.792 -4.797000000000001 4.32 -0.36000000000000004 8.019 -3.285 10.206 -6.9030000000000005 4.356 -7.2 4.5 -21.42 -0.20700000000000002 -28.521 -9.450000000000001 -14.283 -36.234 -16.263 -47.97 0 -8.784 12.276000000000002 -4.203 32.148 11.385 34.713zm13.266 26.946c1.584 0.20700000000000002 4.239 -0.648 4.662 -1.269 1.242 2.835 -2.8080000000000003 4.742999999999999 -4.662 1.269zm12.6 -7.488a6.219 6.219 0 0 1 -1.368 3.285c-0.261 -1.233 -0.5760000000000001 -2.475 -0.9 -3.672 -0.162 -0.675 -0.5040000000000001 -0.405 -0.5040000000000001 -0.14400000000000002 0 2.2680000000000002 -0.20700000000000002 6.507000000000001 -2.7 7.515 -1.062 -2.2769999999999997 -2.052 -2.646 -4.644 -2.781 -7.668 -0.468 -7.983 0.774 -9.162 3.267 -1.683 -1.35 -2.169 -6.147 -2.169 -8.1 0 -0.18000000000000002 -0.27 -0.25200000000000006 -0.324 -0.06300000000000001a32.544 32.544 0 0 0 -1.035 4.707000000000001c-1.476 -1.548 -2.493 -4.752000000000001 -0.9 -6.5520000000000005 0.5940000000000001 -0.657 1.746 1.4669999999999999 2.538 0.081 0.5040000000000001 4.742999999999999 1.7369999999999999 4.563000000000001 3.9869999999999997 4.563000000000001 3.087 0 3.006 -0.369 3.798 -3.33 0.189 -0.6930000000000001 0.162 -1.242 0.657 -1.539 1.6740000000000002 -0.9630000000000001 0.9900000000000001 4.401 3.4650000000000003 4.779a11.700000000000001 11.700000000000001 0 0 0 3.6 -0.099c1.233 -0.198 1.332 -1.08 1.557 -2.133a15.795000000000002 15.795000000000002 0 0 0 0.30600000000000005 -3.186c0.081 0.8190000000000001 0.468 2.034 1.494 1.1520000000000001 0.378 -0.333 0.675 -0.801 1.242 -0.666 1.215 0.279 1.215 1.9800000000000002 1.089 2.9160000000000004zM77.598 39.294a5.67 5.67 0 0 0 6.687 -0.5940000000000001c1.53 1.125 4.266 1.035 6.003 0.45a5.814 5.814 0 0 0 3.726 2.124c-3.726 6.3 -4.995 14.103 -6.003 21.204a54.099000000000004 54.099000000000004 0 0 0 -8.874 0 62.028000000000006 62.028000000000006 0 0 0 -5.652 -20.232 6.066000000000001 6.066000000000001 0 0 0 4.113 -2.952zm-0.198 -0.747c-1.917 -1.53 0.792 -2.628 0 0zm7.551000000000001 -2.475c0.5940000000000001 0.405 -0.324 1.566 -0.648 1.9260000000000002 -0.873 -0.927 -0.07200000000000001 -2.394 0.63 -1.9260000000000002zm5.652 1.323c0.49500000000000005 -0.639 1.287 0.558 -0.06300000000000001 1.125a1.098 1.098 0 0 1 0.045000000000000005 -1.125zm2.007 30.375a24.777 24.777 0 0 0 -0.30600000000000005 5.472c-5.6610000000000005 0.189 -11.322000000000001 0.279 -16.974 0.549a21.915000000000003 21.915000000000003 0 0 0 -0.35100000000000003 -6.417c6.363 -0.864 11.187 -1.107 17.613 0.396zm-1.044 6.3c-0.333 3.447 0 4.77 -2.781 4.824000000000001 -3.1050000000000004 0.07200000000000001 -2.133 -0.09000000000000001 -3.906 -4.6080000000000005q3.321 -0.108 6.6690000000000005 -0.234zm-9 0.29700000000000004c-1.233 4.806 -0.7200000000000001 4.6259999999999994 -3.447 4.6259999999999994s-2.6550000000000002 -0.18000000000000002 -3.267 -4.5zm-24.813000000000002 -47.97c9.270000000000001 -16.965000000000003 34.866 -17.883000000000003 46.647 -5.085000000000001 6.129 6.66 6.615 18.900000000000002 3.6990000000000003 27.063000000000002 -1.8 4.914 -5.867999999999999 9.513 -11.322000000000001 9.9 -0.846 0.07200000000000001 -1.2060000000000002 4.563000000000001 -1.143 5.283a51.957 51.957 0 0 0 -7.0649999999999995 -1.107c1.017 -7.2 2.2230000000000003 -14.822999999999999 6.012 -21.159000000000002 4.824000000000001 0.558 2.9610000000000003 -5.535 -0.28800000000000003 -0.531a5.7509999999999994 5.7509999999999994 0 0 1 -3.528 -1.872c1.197 -0.54 1.305 -1.8 0.468 -2.169 -0.9810000000000001 -0.432 -1.548 0.9810000000000001 -1.1700000000000002 1.917 -1.593 0.48600000000000004 -3.9869999999999997 0.63 -5.4 -0.396 2.205 -2.385 0 -3.546 -0.9 -2.25a1.863 1.863 0 0 0 0.234 2.286 5.247 5.247 0 0 1 -6.147 0.5040000000000001c1.4220000000000002 -3.9869999999999997 -3.762 -2.115 -0.5940000000000001 0.18000000000000002a5.526 5.526 0 0 1 -3.906 2.79c-1.215 -2.619 -3.222 -2.898 -3.258 -1.665 -0.045000000000000005 1.4220000000000002 1.395 2.3489999999999998 2.943 2.1870000000000003A66.76200000000001 66.76200000000001 0 0 1 78.84 62.46000000000001a49.671 49.671 0 0 0 -7.011 1.125c0 -0.27 -0.774 -5.4 -1.116 -5.589 0.5670000000000001 -0.846 -4.977 -0.15300000000000002 -10.35 -6.129 -6.282000000000001 -6.867 -6.984 -17.496000000000002 -2.61 -25.470000000000002zm37.116 14.463000000000001c2.367 -3.483 3.339 0.162 0 0zm-22.122 1.0080000000000002c-1.053 0.054 -2.754 -1.1700000000000002 -2.205 -1.845s1.782 0.9900000000000001 2.205 1.845z" stroke-width="1"></path><path d="M97.632 85.284a0.279 0.279 0 0 0 -0.27 0.279c0 0.522 1.557 0.06300000000000001 4.6530000000000005 1.575 0.396 0.198 0.7110000000000001 -0.45 0.24300000000000002 -0.684a10.251000000000001 10.251000000000001 0 0 0 -4.6259999999999994 -1.1700000000000002zM5.121 116.658c-1.1340000000000001 -1.4580000000000002 -0.468 3.978 0 6.003 0.07200000000000001 0.28800000000000003 0.5760000000000001 0.20700000000000002 0.531 -0.099 -0.513 -2.9339999999999997 -0.432 -5.760000000000001 -0.54 -5.886zm1.9980000000000002 -11.178a0.35100000000000003 0.35100000000000003 0 0 0 -0.63 -0.27A13.698 13.698 0 0 0 5.4 110.817c0 0.279 0.432 0.25200000000000006 0.47700000000000004 0a23.400000000000002 23.400000000000002 0 0 1 1.296 -5.337zm-0.41400000000000003 22.383000000000003c-0.108 -0.30600000000000005 -0.5760000000000001 -0.117 -0.531 0.18000000000000002a30.312 30.312 0 0 0 2.133 6.5520000000000005c0.441 1.0080000000000002 0.9990000000000001 -0.07200000000000001 0.48600000000000004 -0.7110000000000001 -0.8370000000000001 -1.971 -1.395 -4.005 -2.088 -6.021000000000001zm28.872 -47.565000000000005a13.968 13.968 0 0 0 -6.03 2.637c-0.261 0.189 0.054 0.549 0.315 0.396 4.113 -2.7 6.3 -1.8 6.129 -2.7a0.369 0.369 0 0 0 -0.41400000000000003 -0.333zM26.1 46.854000000000006c13.059 -3.186 10.422 -1.0080000000000002 7.623000000000001 -4.914 3.3480000000000003 -0.216 6.696000000000001 -0.30600000000000005 10.053 -0.432 0.28800000000000003 0 0.315 -0.49500000000000005 0 -0.5040000000000001a90.099 90.099 0 0 0 -10.8 0.216c-1.287 0.09000000000000001 1.53 2.79 1.8 2.979l-8.919 1.8900000000000001c-0.9990000000000001 0.27 -0.432 1.026 0.24300000000000002 0.765zM36.702000000000005 31.5a0.396 0.396 0 0 0 0.513 -0.234 33.822 33.822 0 0 0 -1.4669999999999999 -4.122l10.881 5.121a0.24300000000000002 0.24300000000000002 0 0 0 0.216 -0.441c-14.751000000000001 -7.038 -13.004999999999999 -7.875 -10.610999999999999 -1.323 -8.253 -3.231 -9.513 -4.104 -9.666 -3.3120000000000003a0.35100000000000003 0.35100000000000003 0 0 0 0.189 0.378c1.1880000000000002 0.666 8.136 3.204 9.945 3.9330000000000003z" stroke-width="1"></path></g></svg>